<svg width="39" height="44" viewBox="0 0 39 44" fill="none" xmlns="http://www.w3.org/2000/svg">
<g filter="url(#filter0_d_2_10)">
<path d="M14.0737 4.99781C15.4968 4.49755 17.0601 5.16995 17.5646 6.499C17.9508 7.51655 17.6039 8.62314 16.7827 9.31103L17.2254 10.5213L17.9304 11.3358C18.0913 11.5222 18.3356 11.6112 18.5805 11.5809C19.2407 11.4992 19.8967 11.4957 20.5391 11.5629C20.7568 11.5859 20.9734 11.5138 21.1298 11.3616L21.6393 10.8681L22.0154 9.77397C21.6963 9.33543 21.5886 8.75444 21.7783 8.20221C22.1002 7.26607 23.1501 6.78166 24.0833 7.16431C24.8872 7.49354 25.3241 8.38856 25.0882 9.22185C24.9383 9.75261 24.5595 10.1503 24.0934 10.3473L23.677 11.5598L23.7714 12.2276C23.8038 12.4572 23.9399 12.6577 24.1388 12.7778C24.8076 13.1838 25.4217 13.6801 25.9608 14.2541C26.1419 14.4473 26.4123 14.53 26.6723 14.4774L28.0104 14.2076L29.5225 13.3675C29.5308 12.6235 29.9286 11.904 30.6281 11.5153C31.6858 10.928 33.0245 11.3213 33.5872 12.3959C34.0951 13.3654 33.775 14.5846 32.8534 15.1822C32.1338 15.648 31.2561 15.6316 30.5789 15.2346L29.0578 16.0792L28.2081 16.9825C27.9801 17.2248 27.8987 17.5674 27.9854 17.888C27.9859 17.8899 27.9863 17.8912 27.9868 17.8931C28.1352 18.4456 28.2251 19.0009 28.2621 19.5514C28.2835 19.8793 28.4688 20.1743 28.7591 20.3309L29.8669 20.9281L32.0631 21.3413C32.4505 21.0035 32.984 20.8399 33.529 20.9419C34.5061 21.126 35.1346 22.0937 34.8836 23.0684C34.6677 23.9031 33.8458 24.4592 32.9869 24.3504C32.4011 24.2762 31.9284 23.9241 31.6747 23.4505L29.4643 23.035L28.1006 23.202C27.8492 23.2333 27.6296 23.3908 27.5269 23.6213C27.1184 24.5312 26.5549 25.3681 25.8594 26.0908C25.6865 26.2703 25.6216 26.5273 25.6841 26.7677L26.0221 28.077L26.8578 29.3859C27.7783 29.2474 28.7356 29.6439 29.2663 30.4753C29.9797 31.5921 29.6548 33.0718 28.5428 33.7935C27.4314 34.515 25.9199 34.2023 25.1925 33.0994C24.6831 32.3273 24.6782 31.3743 25.0919 30.618L24.2047 29.2289L23.1133 28.3329C22.9516 28.1994 22.7313 28.1642 22.5339 28.2346C22.3148 28.3128 22.0915 28.3827 21.863 28.4438C20.6218 28.7756 19.3706 28.8191 18.1806 28.6174C18.0061 28.5883 17.8277 28.638 17.6941 28.7536L17.1078 29.2623L16.6713 30.3339C16.9658 30.7899 17.0408 31.3756 16.8208 31.9163C16.4469 32.8338 15.3716 33.2593 14.4615 32.8259C13.6778 32.4527 13.2912 31.5347 13.5731 30.7155C13.7526 30.1938 14.1522 29.8176 14.6287 29.6469L15.1122 28.4591L15.0233 27.4162C14.153 26.8726 13.3786 26.1747 12.7456 25.3498L11.2563 25.4975L9.86209 26.1863C9.87055 27.1194 9.38882 28.0075 8.54404 28.4378C7.35033 29.0452 5.88489 28.5091 5.27125 27.2397C4.65779 25.9709 5.12732 24.4498 6.32103 23.8424C7.21433 23.3876 8.25919 23.5733 8.98584 24.2277L10.3007 23.5777L11.2136 22.6007C11.2733 22.5367 11.2954 22.4468 11.2728 22.3628L11.2725 22.3616C10.8519 20.7955 10.896 19.2122 11.3199 17.7568C11.3427 17.6769 11.3257 17.5908 11.2719 17.5273L10.4855 16.5897L8.79053 15.7028C8.32337 15.9082 7.7697 15.908 7.28295 15.653C6.40363 15.1924 6.0874 14.0857 6.61229 13.2266C7.07311 12.4733 8.05374 12.1868 8.84964 12.5723C9.36481 12.8217 9.69694 13.2886 9.79488 13.8052L11.4899 14.6921L12.6967 14.8047C12.7805 14.8127 12.8621 14.7774 12.9154 14.7124C13.4632 14.0373 14.1152 13.4414 14.8558 12.9523C15.059 12.8175 15.1854 12.5942 15.1888 12.351L15.2019 11.2578L14.7298 9.96817C13.7042 9.89513 12.7769 9.27606 12.4099 8.30956C11.9054 6.98051 12.6504 5.49745 14.0737 4.99781Z" fill="#EC5863"/>
<path d="M25.8179 18.4731C24.9045 15.0721 21.3936 13.0558 17.9759 13.9695C14.5583 14.8832 12.5282 18.3809 13.4415 21.7819C14.3549 25.1829 17.8658 27.1992 21.2835 26.2855C24.7011 25.3718 26.7312 21.8741 25.8179 18.4731Z" fill="#F58A97"/>
<path d="M20.7812 24.4101C17.6852 25.2373 14.5121 23.6584 13.2638 20.8238C13.299 21.1424 13.3589 21.4623 13.4446 21.7814C14.3587 25.1827 17.8692 27.2 21.2857 26.2873C24.7022 25.3745 26.7307 21.8774 25.8166 18.4761C25.7308 18.157 25.6223 17.8501 25.493 17.5566C25.8333 20.6337 23.8771 23.583 20.7812 24.4101Z" fill="#F07281"/>
<path d="M11.175 33.4951C10.9148 32.5265 9.915 31.9522 8.94183 32.2123C7.96866 32.4724 7.39066 33.4685 7.65083 34.4371C7.91101 35.4057 8.91083 35.98 9.884 35.7199C10.8572 35.4598 11.4352 34.4637 11.175 33.4951Z" fill="#EB5569"/>
<path d="M33.9217 27.9374C33.7498 27.2976 33.0894 26.9183 32.4467 27.0901C31.8039 27.2619 31.4221 27.9198 31.5939 28.5595C31.7658 29.1993 32.4262 29.5786 33.069 29.4068C33.7118 29.235 34.0935 28.5771 33.9217 27.9374Z" fill="#EB5569"/>
<path d="M30.6599 6.00131C30.4068 5.05899 29.4341 4.50024 28.4873 4.7533C27.5405 5.00637 26.9782 5.97542 27.2313 6.91774C27.4844 7.86006 28.4571 8.41881 29.4039 8.16575C30.3507 7.91269 30.913 6.94363 30.6599 6.00131Z" fill="#EB5569"/>
<path d="M20.031 22.0469C19.795 21.1684 18.8881 20.6474 18.0054 20.8834C17.1227 21.1193 16.5985 22.0228 16.8345 22.9013C17.0704 23.7798 17.9773 24.3007 18.86 24.0648C19.7427 23.8289 20.267 22.9254 20.031 22.0469Z" fill="#EB5569"/>
<path d="M24.1389 19.5813C23.9783 18.9833 23.361 18.6287 22.7602 18.7893C22.1594 18.9499 21.8026 19.5648 21.9632 20.1628C22.1238 20.7608 22.7411 21.1154 23.3419 20.9548C23.9427 20.7942 24.2995 20.1792 24.1389 19.5813Z" fill="#EB5569"/>
<path d="M19.7934 17.0956C19.6585 16.5935 19.1402 16.2958 18.6357 16.4306C18.1311 16.5655 17.8315 17.0818 17.9664 17.584C18.1013 18.0861 18.6196 18.3838 19.1241 18.249C19.6286 18.1141 19.9283 17.5978 19.7934 17.0956Z" fill="#EB5569"/>
</g>
<defs>
<filter id="filter0_d_2_10" x="1.00185" y="4.69241" width="37.9371" height="39.0901" filterUnits="userSpaceOnUse" color-interpolation-filters="sRGB">
<feFlood flood-opacity="0" result="BackgroundImageFix"/>
<feColorMatrix in="SourceAlpha" type="matrix" values="0 0 0 0 0 0 0 0 0 0 0 0 0 0 0 0 0 0 127 0" result="hardAlpha"/>
<feOffset dy="4"/>
<feGaussianBlur stdDeviation="2"/>
<feComposite in2="hardAlpha" operator="out"/>
<feColorMatrix type="matrix" values="0 0 0 0 0 0 0 0 0 0 0 0 0 0 0 0 0 0 0.25 0"/>
<feBlend mode="normal" in2="BackgroundImageFix" result="effect1_dropShadow_2_10"/>
<feBlend mode="normal" in="SourceGraphic" in2="effect1_dropShadow_2_10" result="shape"/>
</filter>
</defs>
</svg>
