<svg width="140" height="44" viewBox="0 0 140 44" fill="none" xmlns="http://www.w3.org/2000/svg">
<path d="M49.158 18.1495C49.122 18.4375 49.104 18.8995 49.104 19.5355C49.104 20.2795 49.122 20.8255 49.158 21.1735C49.206 21.7855 49.41 22.2895 49.77 22.6855C50.13 23.0695 50.682 23.2615 51.426 23.2615C52.11 23.2615 52.656 23.1055 53.064 22.7935C53.484 22.4695 53.694 21.9655 53.694 21.2815H52.182C52.05 21.2815 51.936 21.2335 51.84 21.1375C51.744 21.0415 51.696 20.9275 51.696 20.7955V18.8875C51.696 18.7555 51.744 18.6415 51.84 18.5455C51.936 18.4495 52.05 18.4015 52.182 18.4015H56.538C56.67 18.4015 56.784 18.4495 56.88 18.5455C56.976 18.6415 57.024 18.7555 57.024 18.8875V21.1915C57.024 22.1875 56.778 23.0635 56.286 23.8195C55.794 24.5635 55.122 25.1395 54.27 25.5475C53.43 25.9435 52.482 26.1415 51.426 26.1415C50.31 26.1415 49.338 25.9255 48.51 25.4935C47.682 25.0495 47.04 24.4615 46.584 23.7295C46.128 22.9855 45.876 22.1635 45.828 21.2635C45.804 20.6875 45.792 20.2135 45.792 19.8415C45.792 19.3975 45.804 18.8035 45.828 18.0595C45.864 17.1595 46.11 16.3435 46.566 15.6115C47.022 14.8675 47.664 14.2795 48.492 13.8475C49.332 13.4035 50.31 13.1815 51.426 13.1815C52.494 13.1815 53.436 13.3795 54.252 13.7755C55.08 14.1715 55.722 14.6695 56.178 15.2695C56.646 15.8695 56.898 16.4515 56.934 17.0155C56.946 17.1235 56.91 17.2195 56.826 17.3035C56.742 17.3755 56.646 17.4115 56.538 17.4115H54.144C53.988 17.4115 53.862 17.3755 53.766 17.3035C53.682 17.2195 53.568 17.0935 53.424 16.9255C53.208 16.6615 52.95 16.4515 52.65 16.2955C52.362 16.1395 51.954 16.0615 51.426 16.0615C50.07 16.0615 49.314 16.7575 49.158 18.1495ZM68.2369 21.9835C68.2009 22.7515 67.9789 23.4535 67.5709 24.0895C67.1629 24.7135 66.5929 25.2115 65.8609 25.5835C65.1289 25.9555 64.2889 26.1415 63.3409 26.1415C62.3929 26.1415 61.5529 25.9555 60.8209 25.5835C60.0889 25.2115 59.5189 24.7135 59.1109 24.0895C58.7029 23.4535 58.4809 22.7515 58.4449 21.9835L58.4269 21.2815L58.4449 20.5975C58.4689 19.8295 58.6849 19.1275 59.0929 18.4915C59.5009 17.8555 60.0709 17.3515 60.8029 16.9795C61.5469 16.6075 62.3929 16.4215 63.3409 16.4215C64.2889 16.4215 65.1289 16.6075 65.8609 16.9795C66.6049 17.3515 67.1809 17.8555 67.5889 18.4915C67.9969 19.1275 68.2129 19.8295 68.2369 20.5975C68.2489 20.7175 68.2549 20.9455 68.2549 21.2815C68.2549 21.6295 68.2489 21.8635 68.2369 21.9835ZM63.3409 23.3515C63.8209 23.3515 64.2049 23.2255 64.4929 22.9735C64.7929 22.7095 64.9609 22.3495 64.9969 21.8935C65.0209 21.6535 65.0329 21.4495 65.0329 21.2815C65.0329 21.1135 65.0209 20.9095 64.9969 20.6695C64.9609 20.2135 64.7929 19.8595 64.4929 19.6075C64.2049 19.3435 63.8209 19.2115 63.3409 19.2115C62.8609 19.2115 62.4709 19.3435 62.1709 19.6075C61.8829 19.8595 61.7209 20.2135 61.6849 20.6695C61.6729 20.7895 61.6669 20.9935 61.6669 21.2815C61.6669 21.5695 61.6729 21.7735 61.6849 21.8935C61.7209 22.3495 61.8829 22.7095 62.1709 22.9735C62.4709 23.2255 62.8609 23.3515 63.3409 23.3515Z" fill="black"/>
<path d="M73.0467 21.1735C73.0947 21.7975 73.2927 22.3015 73.6407 22.6855C74.0007 23.0695 74.5587 23.2615 75.3147 23.2615C76.0347 23.2615 76.5567 23.1235 76.8807 22.8475C77.2047 22.5715 77.4327 22.2355 77.5647 21.8395C77.6367 21.6355 77.7087 21.4975 77.7807 21.4255C77.8527 21.3535 77.9847 21.3175 78.1767 21.3175H80.5347C80.6427 21.3175 80.7327 21.3595 80.8047 21.4435C80.8887 21.5155 80.9307 21.6055 80.9307 21.7135C80.9187 22.5175 80.6607 23.2615 80.1567 23.9455C79.6647 24.6175 78.9927 25.1515 78.1407 25.5475C77.2887 25.9435 76.3467 26.1415 75.3147 26.1415C74.1987 26.1415 73.2267 25.9255 72.3987 25.4935C71.5707 25.0495 70.9287 24.4615 70.4727 23.7295C70.0167 22.9855 69.7647 22.1635 69.7167 21.2635C69.6927 20.6875 69.6807 20.2135 69.6807 19.8415C69.6807 19.3975 69.6927 18.8035 69.7167 18.0595C69.7527 17.1595 69.9987 16.3435 70.4547 15.6115C70.9107 14.8675 71.5527 14.2795 72.3807 13.8475C73.2207 13.4035 74.1987 13.1815 75.3147 13.1815C76.3467 13.1815 77.2887 13.3795 78.1407 13.7755C78.9927 14.1715 79.6647 14.7115 80.1567 15.3955C80.6607 16.0675 80.9187 16.8055 80.9307 17.6095C80.9307 17.7175 80.8887 17.8135 80.8047 17.8975C80.7327 17.9695 80.6427 18.0055 80.5347 18.0055H78.1767C77.9847 18.0055 77.8527 17.9695 77.7807 17.8975C77.7087 17.8255 77.6367 17.6875 77.5647 17.4835C77.4327 17.0875 77.2047 16.7515 76.8807 16.4755C76.5567 16.1995 76.0347 16.0615 75.3147 16.0615C74.5587 16.0615 74.0007 16.2535 73.6407 16.6375C73.2927 17.0215 73.0947 17.5255 73.0467 18.1495C73.0227 18.5575 73.0107 19.0615 73.0107 19.6615C73.0107 20.2375 73.0227 20.7415 73.0467 21.1735ZM91.9673 21.9835C91.9313 22.7515 91.7093 23.4535 91.3013 24.0895C90.8933 24.7135 90.3233 25.2115 89.5913 25.5835C88.8593 25.9555 88.0193 26.1415 87.0713 26.1415C86.1233 26.1415 85.2833 25.9555 84.5513 25.5835C83.8193 25.2115 83.2493 24.7135 82.8413 24.0895C82.4333 23.4535 82.2113 22.7515 82.1753 21.9835L82.1573 21.2815L82.1753 20.5975C82.1993 19.8295 82.4153 19.1275 82.8233 18.4915C83.2313 17.8555 83.8013 17.3515 84.5333 16.9795C85.2773 16.6075 86.1233 16.4215 87.0713 16.4215C88.0193 16.4215 88.8593 16.6075 89.5913 16.9795C90.3353 17.3515 90.9113 17.8555 91.3193 18.4915C91.7273 19.1275 91.9433 19.8295 91.9673 20.5975C91.9793 20.7175 91.9853 20.9455 91.9853 21.2815C91.9853 21.6295 91.9793 21.8635 91.9673 21.9835ZM87.0713 23.3515C87.5513 23.3515 87.9353 23.2255 88.2233 22.9735C88.5233 22.7095 88.6913 22.3495 88.7273 21.8935C88.7513 21.6535 88.7633 21.4495 88.7633 21.2815C88.7633 21.1135 88.7513 20.9095 88.7273 20.6695C88.6913 20.2135 88.5233 19.8595 88.2233 19.6075C87.9353 19.3435 87.5513 19.2115 87.0713 19.2115C86.5913 19.2115 86.2013 19.3435 85.9013 19.6075C85.6133 19.8595 85.4513 20.2135 85.4153 20.6695C85.4033 20.7895 85.3973 20.9935 85.3973 21.2815C85.3973 21.5695 85.4033 21.7735 85.4153 21.8935C85.4513 22.3495 85.6133 22.7095 85.9013 22.9735C86.2013 23.2255 86.5913 23.3515 87.0713 23.3515ZM100.109 16.6015C100.241 16.6015 100.355 16.6495 100.451 16.7455C100.547 16.8415 100.595 16.9555 100.595 17.0875V18.9055C100.595 19.0375 100.547 19.1515 100.451 19.2475C100.355 19.3435 100.241 19.3915 100.109 19.3915H98.4713C97.9313 19.3915 97.5173 19.5355 97.2293 19.8235C96.9533 20.0995 96.8153 20.5075 96.8153 21.0475V25.4755C96.8153 25.6075 96.7673 25.7215 96.6713 25.8175C96.5753 25.9135 96.4613 25.9615 96.3293 25.9615H94.0613C93.9293 25.9615 93.8153 25.9135 93.7192 25.8175C93.6233 25.7215 93.5753 25.6075 93.5753 25.4755V17.0875C93.5753 16.9555 93.6233 16.8415 93.7192 16.7455C93.8153 16.6495 93.9293 16.6015 94.0613 16.6015H96.1493C96.2813 16.6015 96.3953 16.6495 96.4913 16.7455C96.5873 16.8415 96.6353 16.9555 96.6353 17.0875V17.5015C97.2593 16.9015 98.0573 16.6015 99.0293 16.6015H100.109ZM111.233 21.9835C111.197 22.7515 110.975 23.4535 110.567 24.0895C110.159 24.7135 109.589 25.2115 108.857 25.5835C108.125 25.9555 107.285 26.1415 106.337 26.1415C105.389 26.1415 104.549 25.9555 103.817 25.5835C103.085 25.2115 102.515 24.7135 102.107 24.0895C101.699 23.4535 101.477 22.7515 101.441 21.9835L101.423 21.2815L101.441 20.5975C101.465 19.8295 101.681 19.1275 102.089 18.4915C102.497 17.8555 103.067 17.3515 103.799 16.9795C104.543 16.6075 105.389 16.4215 106.337 16.4215C107.285 16.4215 108.125 16.6075 108.857 16.9795C109.601 17.3515 110.177 17.8555 110.585 18.4915C110.993 19.1275 111.209 19.8295 111.233 20.5975C111.245 20.7175 111.251 20.9455 111.251 21.2815C111.251 21.6295 111.245 21.8635 111.233 21.9835ZM106.337 23.3515C106.817 23.3515 107.201 23.2255 107.489 22.9735C107.789 22.7095 107.957 22.3495 107.993 21.8935C108.017 21.6535 108.029 21.4495 108.029 21.2815C108.029 21.1135 108.017 20.9095 107.993 20.6695C107.957 20.2135 107.789 19.8595 107.489 19.6075C107.201 19.3435 106.817 19.2115 106.337 19.2115C105.857 19.2115 105.467 19.3435 105.167 19.6075C104.879 19.8595 104.717 20.2135 104.681 20.6695C104.669 20.7895 104.663 20.9935 104.663 21.2815C104.663 21.5695 104.669 21.7735 104.681 21.8935C104.717 22.3495 104.879 22.7095 105.167 22.9735C105.467 23.2255 105.857 23.3515 106.337 23.3515ZM122.523 25.4755C122.523 25.6075 122.475 25.7215 122.379 25.8175C122.283 25.9135 122.169 25.9615 122.037 25.9615H119.769C119.637 25.9615 119.523 25.9135 119.427 25.8175C119.331 25.7215 119.283 25.6075 119.283 25.4755V20.9215C119.283 20.3935 119.151 19.9795 118.887 19.6795C118.635 19.3675 118.245 19.2115 117.717 19.2115C117.201 19.2115 116.811 19.3615 116.547 19.6615C116.295 19.9615 116.169 20.3815 116.169 20.9215V25.4755C116.169 25.6075 116.121 25.7215 116.025 25.8175C115.929 25.9135 115.815 25.9615 115.683 25.9615H113.415C113.283 25.9615 113.169 25.9135 113.073 25.8175C112.977 25.7215 112.929 25.6075 112.929 25.4755V17.0875C112.929 16.9555 112.977 16.8415 113.073 16.7455C113.169 16.6495 113.283 16.6015 113.415 16.6015H115.593C115.725 16.6015 115.839 16.6495 115.935 16.7455C116.031 16.8415 116.079 16.9555 116.079 17.0875V17.5015C116.643 16.7815 117.489 16.4215 118.617 16.4215C119.829 16.4215 120.783 16.7635 121.479 17.4475C122.175 18.1315 122.523 19.1575 122.523 20.5255V25.4755ZM129.877 19.8415C129.877 19.1815 129.529 18.8515 128.833 18.8515C128.437 18.8515 128.113 18.9595 127.861 19.1755C127.765 19.2715 127.669 19.3315 127.573 19.3555C127.477 19.3795 127.357 19.3915 127.213 19.3915H124.927C124.807 19.3915 124.705 19.3555 124.621 19.2835C124.549 19.2115 124.519 19.1155 124.531 18.9955C124.567 18.6235 124.771 18.2395 125.143 17.8435C125.527 17.4355 126.043 17.0995 126.691 16.8355C127.339 16.5595 128.053 16.4215 128.833 16.4215C130.261 16.4215 131.329 16.7455 132.037 17.3935C132.757 18.0415 133.117 18.9175 133.117 20.0215V25.4755C133.117 25.6075 133.069 25.7215 132.973 25.8175C132.877 25.9135 132.763 25.9615 132.631 25.9615H130.363C130.231 25.9615 130.117 25.9135 130.021 25.8175C129.925 25.7215 129.877 25.6075 129.877 25.4755V24.9715C129.565 25.3555 129.193 25.6495 128.761 25.8535C128.329 26.0455 127.783 26.1415 127.123 26.1415C126.115 26.1415 125.323 25.8775 124.747 25.3495C124.183 24.8215 123.901 24.1375 123.901 23.2975C123.901 22.4935 124.213 21.8335 124.837 21.3175C125.461 20.8015 126.439 20.4295 127.771 20.2015L129.877 19.8415ZM128.221 22.2355C127.885 22.2955 127.621 22.4035 127.429 22.5595C127.237 22.7035 127.141 22.8835 127.141 23.0995C127.141 23.5075 127.429 23.7115 128.005 23.7115C128.533 23.7115 128.977 23.5435 129.337 23.2075C129.697 22.8715 129.877 22.4635 129.877 21.9835L128.221 22.2355Z" fill="#EC5863"/>
<g filter="url(#filter0_d_2_7)">
<path d="M14.0737 4.99781C15.4968 4.49755 17.0601 5.16995 17.5646 6.499C17.9508 7.51655 17.6039 8.62314 16.7827 9.31103L17.2254 10.5213L17.9304 11.3358C18.0913 11.5222 18.3356 11.6112 18.5805 11.5809C19.2407 11.4992 19.8967 11.4957 20.5391 11.5629C20.7568 11.5859 20.9734 11.5138 21.1298 11.3616L21.6393 10.8681L22.0154 9.77397C21.6963 9.33543 21.5886 8.75444 21.7783 8.20221C22.1002 7.26607 23.1501 6.78166 24.0833 7.16431C24.8872 7.49354 25.3241 8.38856 25.0882 9.22185C24.9383 9.75261 24.5595 10.1503 24.0934 10.3473L23.677 11.5598L23.7714 12.2276C23.8038 12.4572 23.9399 12.6577 24.1388 12.7778C24.8076 13.1838 25.4217 13.6801 25.9608 14.2541C26.1419 14.4473 26.4123 14.53 26.6723 14.4774L28.0104 14.2076L29.5225 13.3675C29.5308 12.6235 29.9286 11.904 30.6281 11.5153C31.6858 10.928 33.0245 11.3213 33.5872 12.3959C34.0951 13.3654 33.775 14.5846 32.8534 15.1822C32.1338 15.648 31.2561 15.6316 30.5789 15.2346L29.0578 16.0792L28.2081 16.9825C27.9801 17.2248 27.8987 17.5674 27.9854 17.888C27.9859 17.8899 27.9863 17.8912 27.9868 17.8931C28.1352 18.4456 28.2251 19.0009 28.2621 19.5514C28.2835 19.8793 28.4688 20.1743 28.7591 20.3309L29.8669 20.9281L32.0631 21.3413C32.4505 21.0035 32.984 20.8399 33.529 20.9419C34.5061 21.126 35.1346 22.0937 34.8836 23.0684C34.6677 23.9031 33.8458 24.4592 32.9869 24.3504C32.4011 24.2762 31.9284 23.9241 31.6747 23.4505L29.4643 23.035L28.1006 23.202C27.8492 23.2333 27.6296 23.3908 27.5269 23.6213C27.1184 24.5312 26.5549 25.3681 25.8594 26.0908C25.6865 26.2703 25.6216 26.5273 25.6841 26.7677L26.0221 28.077L26.8578 29.3859C27.7783 29.2474 28.7356 29.6439 29.2663 30.4753C29.9797 31.5921 29.6548 33.0718 28.5428 33.7935C27.4314 34.515 25.9199 34.2023 25.1925 33.0994C24.6831 32.3273 24.6782 31.3743 25.0919 30.618L24.2047 29.2289L23.1133 28.3329C22.9516 28.1994 22.7313 28.1642 22.5339 28.2346C22.3148 28.3128 22.0915 28.3827 21.863 28.4438C20.6218 28.7756 19.3706 28.8191 18.1806 28.6174C18.0061 28.5883 17.8277 28.638 17.6941 28.7536L17.1078 29.2623L16.6713 30.3339C16.9658 30.7899 17.0408 31.3756 16.8208 31.9163C16.4469 32.8338 15.3716 33.2593 14.4615 32.8259C13.6778 32.4527 13.2912 31.5347 13.5731 30.7155C13.7526 30.1938 14.1522 29.8176 14.6287 29.6469L15.1122 28.4591L15.0233 27.4162C14.153 26.8726 13.3786 26.1747 12.7456 25.3498L11.2563 25.4975L9.86209 26.1863C9.87055 27.1194 9.38882 28.0075 8.54404 28.4378C7.35033 29.0452 5.88489 28.5091 5.27125 27.2397C4.65779 25.9709 5.12732 24.4498 6.32103 23.8424C7.21433 23.3876 8.25919 23.5733 8.98584 24.2277L10.3007 23.5777L11.2136 22.6007C11.2733 22.5367 11.2954 22.4468 11.2728 22.3628L11.2725 22.3616C10.8519 20.7955 10.896 19.2122 11.3199 17.7568C11.3427 17.6769 11.3257 17.5908 11.2719 17.5273L10.4855 16.5897L8.79053 15.7028C8.32337 15.9082 7.7697 15.908 7.28295 15.653C6.40363 15.1924 6.0874 14.0857 6.61229 13.2266C7.07311 12.4733 8.05374 12.1868 8.84964 12.5723C9.36481 12.8217 9.69694 13.2886 9.79488 13.8052L11.4899 14.6921L12.6967 14.8047C12.7805 14.8127 12.8621 14.7774 12.9154 14.7124C13.4632 14.0373 14.1152 13.4414 14.8558 12.9523C15.059 12.8175 15.1854 12.5942 15.1888 12.351L15.2019 11.2578L14.7298 9.96817C13.7042 9.89513 12.7769 9.27606 12.4099 8.30956C11.9054 6.98051 12.6504 5.49745 14.0737 4.99781Z" fill="#EC5863"/>
<path d="M25.8179 18.4731C24.9045 15.0721 21.3936 13.0558 17.9759 13.9695C14.5583 14.8832 12.5282 18.3809 13.4415 21.7819C14.3549 25.1829 17.8658 27.1992 21.2835 26.2855C24.7011 25.3718 26.7312 21.8741 25.8179 18.4731Z" fill="#F58A97"/>
<path d="M20.7812 24.4101C17.6852 25.2373 14.5121 23.6584 13.2638 20.8238C13.299 21.1424 13.3589 21.4623 13.4446 21.7814C14.3587 25.1827 17.8692 27.2 21.2857 26.2873C24.7022 25.3745 26.7307 21.8774 25.8166 18.4761C25.7308 18.157 25.6223 17.8501 25.493 17.5566C25.8333 20.6337 23.8771 23.583 20.7812 24.4101Z" fill="#F07281"/>
<path d="M11.175 33.4951C10.9148 32.5265 9.915 31.9522 8.94183 32.2123C7.96866 32.4724 7.39066 33.4685 7.65083 34.4371C7.91101 35.4057 8.91083 35.98 9.884 35.7199C10.8572 35.4598 11.4352 34.4637 11.175 33.4951Z" fill="#EB5569"/>
<path d="M33.9217 27.9374C33.7498 27.2976 33.0894 26.9183 32.4467 27.0901C31.8039 27.2619 31.4221 27.9198 31.5939 28.5595C31.7658 29.1993 32.4262 29.5786 33.069 29.4068C33.7118 29.235 34.0935 28.5771 33.9217 27.9374Z" fill="#EB5569"/>
<path d="M30.6599 6.00131C30.4068 5.05899 29.4341 4.50024 28.4873 4.7533C27.5405 5.00637 26.9782 5.97542 27.2313 6.91774C27.4844 7.86006 28.4571 8.41881 29.4039 8.16575C30.3507 7.91269 30.913 6.94363 30.6599 6.00131Z" fill="#EB5569"/>
<path d="M20.031 22.0469C19.795 21.1684 18.8881 20.6474 18.0054 20.8834C17.1227 21.1193 16.5985 22.0228 16.8345 22.9013C17.0704 23.7798 17.9773 24.3007 18.86 24.0648C19.7427 23.8289 20.267 22.9254 20.031 22.0469Z" fill="#EB5569"/>
<path d="M24.1389 19.5813C23.9783 18.9833 23.361 18.6287 22.7602 18.7893C22.1594 18.9499 21.8026 19.5648 21.9632 20.1628C22.1238 20.7608 22.7411 21.1154 23.3419 20.9548C23.9427 20.7942 24.2995 20.1792 24.1389 19.5813Z" fill="#EB5569"/>
<path d="M19.7934 17.0956C19.6585 16.5935 19.1402 16.2958 18.6357 16.4306C18.1311 16.5655 17.8315 17.0818 17.9664 17.584C18.1013 18.0861 18.6196 18.3838 19.1241 18.249C19.6286 18.1141 19.9283 17.5978 19.7934 17.0956Z" fill="#EB5569"/>
</g>
<defs>
<filter id="filter0_d_2_7" x="1.00185" y="4.69241" width="37.9371" height="39.0901" filterUnits="userSpaceOnUse" color-interpolation-filters="sRGB">
<feFlood flood-opacity="0" result="BackgroundImageFix"/>
<feColorMatrix in="SourceAlpha" type="matrix" values="0 0 0 0 0 0 0 0 0 0 0 0 0 0 0 0 0 0 127 0" result="hardAlpha"/>
<feOffset dy="4"/>
<feGaussianBlur stdDeviation="2"/>
<feComposite in2="hardAlpha" operator="out"/>
<feColorMatrix type="matrix" values="0 0 0 0 0 0 0 0 0 0 0 0 0 0 0 0 0 0 0.25 0"/>
<feBlend mode="normal" in2="BackgroundImageFix" result="effect1_dropShadow_2_7"/>
<feBlend mode="normal" in="SourceGraphic" in2="effect1_dropShadow_2_7" result="shape"/>
</filter>
</defs>
</svg>
